<svg width="1019" height="375" viewBox="0 0 1019 375" fill="none" xmlns="http://www.w3.org/2000/svg">
<path d="M786.433 18.3233C784.031 21.4105 791.578 53.3114 812.159 127.404C828.281 185.031 842.002 232.711 842.688 233.397C843.374 234.083 844.746 234.083 845.775 233.397C849.548 229.281 909.577 23.4686 907.862 19.0093C905.461 12.4919 791.921 11.8059 786.433 18.3233Z" fill="#ED1C24"/>
<path d="M68.4893 73.892C26.6408 88.6419 5.0305 132.892 18.7513 174.397C37.2744 230.652 109.995 246.774 152.529 204.24C181 175.426 182.372 128.089 155.273 95.8453C136.407 73.206 97.303 63.6014 68.4893 73.892ZM116.855 106.479C160.076 129.461 143.611 196.693 94.9018 196.693C42.4197 196.693 30.071 124.316 79.1229 102.706C88.7275 98.5895 104.849 99.9616 116.855 106.479Z" fill="#262626"/>
<path d="M914.378 73.2079C908.203 90.359 864.983 238.887 866.012 239.573C867.384 240.945 996.703 129.806 999.79 124.661C1002.53 120.202 994.988 114.37 955.883 90.359C919.866 67.7196 916.779 66.6906 914.378 73.2079Z" fill="#ED1C24"/>
<path d="M398.132 149.701V226.881H449.585H501.038V211.445V196.009H466.736H432.434V178.858V161.707H463.306H494.178V147.986V134.265H463.306H432.434V117.114V99.9633H466.736H501.038V86.2425V72.5217H449.585H398.132V149.701Z" fill="#262626"/>
<path d="M511.33 149.701V226.881H528.481H545.632V199.439V171.998H555.236C563.812 171.998 566.899 175.085 580.277 199.439L595.37 226.881H613.55H632.073L623.498 212.131C619.038 204.242 611.149 190.864 606.346 182.288L597.085 166.509L607.376 160.335C637.218 142.841 633.788 90.7018 602.23 77.324C594.341 74.2368 577.533 72.5217 550.777 72.5217H511.33V149.701ZM591.254 110.597C598.457 119.172 598.457 123.975 592.283 132.55C588.852 137.01 581.992 139.411 566.556 140.44L545.632 141.812V120.545V98.9343L565.527 101.335C579.248 102.707 586.794 105.452 591.254 110.597Z" fill="#262626"/>
<path d="M638.247 149.701V226.881H655.399H672.55V199.439V171.998H691.416C715.084 171.998 730.177 165.823 742.183 151.759C754.188 137.696 755.217 111.283 744.584 93.789C734.293 76.981 719.886 72.5217 675.98 72.5217H638.247V149.701ZM714.741 109.568C729.834 122.946 715.77 141.126 689.701 141.126H672.55V120.202V99.2773L690.73 101.678C700.334 103.051 711.311 106.481 714.741 109.568Z" fill="#262626"/>
<path d="M224.908 123.975C208.786 132.207 209.472 132.207 209.472 125.69C209.472 121.917 205.356 120.545 194.036 120.545H178.6V173.713V226.881H193.693H208.443L210.158 192.579C211.873 155.533 215.303 147.986 229.71 147.986C245.146 147.986 247.204 153.131 247.204 191.55V226.881H262.64H278.076V183.66C278.076 140.783 278.076 140.44 268.128 130.492C262.64 125.004 255.78 120.545 253.036 120.545C249.948 120.545 245.832 119.858 243.088 118.829C240.687 117.8 232.454 120.201 224.908 123.975Z" fill="#262626"/>
<path d="M317.522 123.288C269.499 145.584 271.214 204.584 320.609 225.165C338.103 232.712 360.4 229.624 374.121 217.962C386.812 207.328 386.812 205.27 375.15 197.723C366.917 192.235 365.545 192.235 356.627 197.38C351.481 200.468 343.592 202.869 339.133 202.869C329.185 202.869 315.807 193.95 315.807 187.09C315.807 183.317 323.011 182.288 353.539 182.288H391.272V170.282C391.272 132.207 351.824 107.166 317.522 123.288ZM354.225 150.387C364.516 159.648 361.429 161.706 338.103 161.706C325.755 161.706 315.807 160.677 315.807 159.305C315.807 158.276 318.208 154.16 321.638 150.73C328.499 143.183 345.65 142.84 354.225 150.387Z" fill="#262626"/>
<path d="M925.698 214.19C897.913 237.172 876.646 256.381 878.361 257.067C881.448 258.096 988.813 245.405 1004.59 241.974C1008.71 241.288 1012.14 238.887 1012.14 237.172C1012.14 229.283 984.697 173.713 980.581 173.027C978.18 172.341 953.482 190.864 925.698 214.19Z" fill="#ED1C24"/>
<path d="M806.669 233.055C803.239 239.573 804.268 240.602 815.588 243.689C822.448 245.747 828.623 246.776 829.309 246.09C829.652 245.747 825.879 240.945 820.39 235.799C810.443 226.195 810.443 226.195 806.669 233.055Z" fill="#ED1C24"/>
<path d="M794.321 261.526C791.234 271.474 793.292 272.16 811.129 269.759L826.908 267.358L814.902 260.84C799.81 252.608 797.065 252.608 794.321 261.526Z" fill="#ED1C24"/>
<path d="M384.412 271.474C384.412 279.02 386.127 285.194 387.842 285.194C389.901 285.194 391.273 282.45 391.273 279.363C391.273 274.218 391.616 274.218 396.075 280.049C400.534 286.223 400.534 286.223 404.307 279.706C407.738 273.875 408.081 273.875 408.424 279.02C408.424 282.45 410.139 285.194 411.854 285.194C413.912 285.194 415.284 279.02 415.284 271.474C415.284 255.352 407.052 252.264 403.278 267.014L400.877 276.619L396.075 267.014C388.871 253.979 384.412 255.352 384.412 271.474Z" fill="#262626"/>
<path d="M430.377 269.758C425.232 282.45 426.604 291.025 432.435 281.764C435.179 277.647 436.894 277.304 442.726 280.735C452.673 287.252 453.016 286.566 448.214 272.502C442.383 255.351 436.894 254.665 430.377 269.758ZM442.726 271.473C442.726 273.188 441.354 274.903 439.296 274.903C437.58 274.903 435.865 273.188 435.865 271.473C435.865 269.415 437.58 268.043 439.296 268.043C441.354 268.043 442.726 269.415 442.726 271.473Z" fill="#262626"/>
<path d="M463.649 272.158C463.992 285.193 464.335 285.879 466.393 276.618L468.451 266.67L474.625 275.932C483.201 288.966 487.317 287.594 487.317 271.472C487.317 257.408 480.457 251.577 480.114 265.298V273.187L474.625 265.298C466.736 253.978 463.306 256.036 463.649 272.158Z" fill="#262626"/>
<path d="M501.725 269.072C496.236 284.508 496.579 285.88 504.469 281.078C509.614 277.648 512.015 277.648 515.445 281.078C522.992 288.625 524.364 285.194 519.219 271.474C512.701 254.666 507.213 253.979 501.725 269.072ZM512.701 269.758C513.73 272.503 513.044 274.904 511.329 274.904C509.271 274.904 507.899 272.503 507.899 269.758C507.899 267.014 508.585 264.613 509.271 264.613C509.957 264.613 511.329 267.014 512.701 269.758Z" fill="#262626"/>
<path d="M536.027 261.87C526.08 271.818 535.341 286.567 549.748 284.509C560.725 283.137 562.44 271.475 551.806 271.475C545.632 271.475 544.946 272.161 549.062 274.905C553.521 277.649 553.178 278.335 548.033 278.335C540.487 278.335 536.027 268.387 542.202 264.614C544.603 263.242 549.405 262.899 553.521 263.928C558.324 264.957 559.696 264.271 557.981 261.87C554.894 256.382 541.173 256.725 536.027 261.87Z" fill="#262626"/>
<path d="M569.642 271.474C569.642 284.508 570.328 285.194 579.933 285.194C592.282 285.194 592.968 282.793 582.677 278.334C576.503 275.933 576.16 275.247 580.962 275.247C588.165 274.904 588.851 268.043 581.648 268.043C573.759 268.043 575.474 261.869 584.392 260.154C589.881 259.125 588.851 258.439 580.962 258.096C569.985 257.753 569.642 258.096 569.642 271.474Z" fill="#262626"/>
<path d="M614.235 260.84C614.235 262.898 615.95 265.299 617.665 266.328C619.723 267.357 621.095 272.16 621.095 276.962C621.095 281.421 622.81 285.194 624.526 285.194C626.584 285.194 627.956 282.45 627.956 279.02C627.956 275.59 630.357 269.415 633.444 265.299C636.188 261.183 637.217 257.753 635.159 257.753C633.444 257.753 630.357 260.497 628.299 263.584C625.212 269.415 624.869 269.415 622.81 263.584C620.409 257.41 614.235 255.352 614.235 260.84Z" fill="#262626"/>
<path d="M650.938 260.152C649.566 261.181 648.537 266.669 648.537 271.814C648.537 279.361 650.595 282.105 657.112 283.82C671.862 287.593 682.153 272.157 671.862 261.867C667.403 257.407 654.711 256.378 650.938 260.152ZM669.118 271.814C669.118 275.93 666.717 278.332 662.601 278.332C653.682 278.332 650.252 272.5 655.397 266.326C660.543 260.152 669.118 263.582 669.118 271.814Z" fill="#262626"/>
<path d="M686.27 269.757C686.27 283.135 693.474 288.623 703.078 282.792C709.253 279.019 712.683 257.752 707.194 257.752C705.136 257.752 703.421 262.211 703.421 268.042C703.421 274.903 701.706 278.333 698.276 278.333C694.846 278.333 693.131 274.903 693.131 268.042C693.131 262.211 691.758 257.752 689.7 257.752C687.985 257.752 686.27 263.24 686.27 269.757Z" fill="#262626"/>
<path d="M720.572 271.127C720.572 284.505 727.432 292.051 727.432 279.017C727.776 273.528 727.776 273.528 732.235 279.017C738.752 287.935 740.124 286.563 739.781 272.156C739.438 260.837 738.409 259.465 730.177 258.435C720.915 257.406 720.572 258.092 720.572 271.127ZM734.293 264.267C734.293 266.325 732.921 268.726 730.863 269.755C729.148 270.784 727.432 269.412 727.432 266.668C727.432 263.581 729.148 261.18 730.863 261.18C732.921 261.18 734.293 262.552 734.293 264.267Z" fill="#262626"/>
<path d="M925.697 267.701C901.686 270.788 881.105 274.218 880.076 275.247C879.047 276.276 898.256 286.567 922.267 298.23C960.685 316.753 973.72 321.898 974.749 318.468C978.179 301.66 982.982 263.928 981.953 262.899C979.552 260.84 977.836 260.84 925.697 267.701Z" fill="#ED1C24"/>
<path d="M805.641 291.027C794.664 293.772 785.745 297.202 785.745 298.574C785.745 299.603 788.49 304.748 791.92 309.893L798.094 319.498L814.902 302.347C824.164 292.742 830.338 285.196 828.623 285.539C826.565 285.882 816.274 288.283 805.641 291.027Z" fill="#ED1C24"/>
<path d="M868.07 287.597C868.07 288.626 877.675 305.777 888.994 325.329L910.262 361.003L920.209 351.399C926.041 346.254 933.244 337.678 937.017 332.533L943.535 323.271L905.802 304.405C885.221 293.771 868.07 286.225 868.07 287.597Z" fill="#ED1C24"/>
<path d="M823.82 319.154C816.274 330.13 809.413 341.107 809.07 343.508C808.041 347.281 833.425 358.944 836.169 355.857C838.57 353.799 841.657 298.915 839.256 298.915C838.227 298.915 831.367 308.177 823.82 319.154Z" fill="#ED1C24"/>
<path d="M852.633 321.899C849.203 359.974 849.203 362.375 851.947 363.747C856.75 365.805 885.22 360.317 885.22 356.887C885.22 353.113 858.122 298.916 856.407 298.916C855.378 298.916 854.005 309.207 852.633 321.899Z" fill="#ED1C24"/>
<path d="M284.935 316.063C284.935 329.098 285.621 329.784 294.882 329.784C307.231 329.784 308.603 327.726 306.545 313.319C304.83 303.714 303.458 302.342 294.882 302.342C285.621 302.342 284.935 303.371 284.935 316.063ZM300.37 309.202C301.4 310.918 300.027 312.633 297.283 312.633C294.196 312.633 291.795 310.918 291.795 309.202C291.795 307.144 293.167 305.772 294.882 305.772C296.94 305.772 299.341 307.144 300.37 309.202ZM301.057 321.551C300.027 322.58 296.94 322.923 294.539 321.894C291.795 320.865 292.824 319.836 296.597 319.836C300.37 319.493 302.429 320.522 301.057 321.551Z" fill="#262626"/>
<path d="M319.923 315.034C320.952 326.353 321.981 328.068 329.528 328.068C337.074 328.068 338.103 326.696 338.446 314.348C338.789 303.371 338.789 302.685 337.417 311.603C335.359 326.353 326.098 327.039 326.098 312.632C326.098 306.801 324.383 302.342 322.324 302.342C320.266 302.342 319.237 307.83 319.923 315.034Z" fill="#262626"/>
<path d="M353.54 308.859C353.54 312.29 355.941 316.063 358.685 317.435C361.429 318.464 363.83 320.865 363.83 322.58C363.83 324.638 361.429 325.324 358.685 324.295C355.941 322.923 353.54 323.952 353.54 326.01C353.54 328.069 356.627 329.784 360.4 329.784C369.662 329.784 373.435 319.836 366.231 314.348C358.685 308.859 358.685 305.429 366.231 308.173C370.005 309.545 371.034 309.202 369.318 306.458C365.202 299.598 353.54 301.656 353.54 308.859Z" fill="#262626"/>
<path d="M380.981 316.063C380.981 323.609 382.696 329.784 384.411 329.784C386.469 329.784 387.841 323.609 387.841 316.063C387.841 308.516 386.469 302.342 384.411 302.342C382.696 302.342 380.981 308.516 380.981 316.063Z" fill="#262626"/>
<path d="M401.563 316.067C401.563 330.13 408.423 335.962 408.766 321.898V314.351L414.254 321.898C422.144 333.561 425.574 331.502 425.574 316.067C425.574 308.52 424.202 302.346 422.144 302.346C420.429 302.346 418.714 305.776 418.714 309.892V317.439L413.225 309.892C405.336 298.572 401.563 300.631 401.563 316.067Z" fill="#262626"/>
<path d="M439.295 316.063C439.295 328.412 440.324 329.784 447.87 329.784C458.504 329.784 459.19 322.923 448.899 322.58C441.353 322.58 441.353 322.237 449.585 318.807L458.161 315.034L449.585 312.633L441.01 310.232L449.585 306.458L458.161 302.685H448.899C439.981 302.342 439.295 303.371 439.295 316.063Z" fill="#262626"/>
<path d="M468.109 306.461C466.737 308.519 468.796 312.978 473.255 316.408L480.458 322.583L472.912 323.955C466.051 324.984 465.708 325.327 471.197 327.728C474.284 329.443 479.429 329.786 482.173 328.414C489.72 325.67 488.348 316.751 480.458 314.35C476.685 313.321 473.598 310.577 473.598 308.519C473.598 306.804 475.999 305.775 478.743 307.147C481.487 308.176 483.888 307.49 483.888 305.775C483.888 300.972 471.197 301.659 468.109 306.461Z" fill="#262626"/>
<path d="M497.608 308.86C497.608 312.633 500.695 316.749 504.468 317.779C513.73 320.866 509.956 326.354 500.352 323.61C495.55 322.581 493.835 322.924 495.55 325.668C499.323 331.842 511.329 330.47 513.73 324.296C515.102 320.866 513.387 316.749 510.3 314.348C502.753 308.86 502.753 305.43 510.3 308.174C514.073 309.546 515.102 309.203 513.387 306.459C509.27 299.598 497.608 301.657 497.608 308.86Z" fill="#262626"/>
<path d="M543.23 316.067C547.003 330.13 555.922 334.933 555.922 323.27C555.922 312.979 561.753 311.607 564.154 321.212C565.526 326.014 567.584 329.787 569.643 329.787C572.387 329.787 573.416 327.043 578.561 308.177C579.59 305.09 578.904 302.346 576.846 302.346C574.788 302.346 573.073 305.433 573.073 309.206C573.073 312.979 571.701 316.067 569.986 316.067C568.27 316.067 566.212 312.979 565.183 309.206C562.782 299.259 556.608 300.631 553.521 311.607L551.462 321.212L548.032 311.607C543.23 297.2 539.457 300.631 543.23 316.067Z" fill="#262626"/>
<path d="M590.224 316.063C590.224 323.609 591.94 329.784 593.655 329.784C595.713 329.784 597.085 323.609 597.085 316.063C597.085 308.516 595.713 302.342 593.655 302.342C591.94 302.342 590.224 308.516 590.224 316.063Z" fill="#262626"/>
<path d="M610.119 304.743C612.177 305.429 614.235 311.604 614.235 318.121C614.235 324.638 615.95 329.784 617.665 329.784C619.723 329.784 621.096 324.638 621.096 318.121C621.096 311.604 623.154 305.429 625.555 304.743C627.613 303.714 624.183 303.028 617.665 303.028C611.148 303.028 607.718 303.714 610.119 304.743Z" fill="#262626"/>
<path d="M638.247 316.063C638.247 323.609 639.963 329.784 641.678 329.784C643.736 329.784 645.108 327.383 645.108 324.638C645.108 321.894 647.509 319.493 650.253 319.493C652.997 319.493 655.399 321.894 655.399 324.638C655.399 327.383 657.114 329.784 658.829 329.784C660.887 329.784 662.259 323.609 662.259 316.063C662.259 308.516 660.887 302.342 658.829 302.342C657.114 302.342 655.399 304.743 655.399 307.487C655.399 310.232 652.997 312.633 650.253 312.633C647.509 312.633 645.108 310.232 645.108 307.487C645.108 304.743 643.736 302.342 641.678 302.342C639.963 302.342 638.247 308.516 638.247 316.063Z" fill="#262626"/>
<path d="M690.385 315.034C691.414 326.353 692.443 328.068 699.99 328.068C707.536 328.068 708.565 326.696 709.251 314.348C709.594 302.685 709.251 301.999 707.536 310.574C704.106 324.638 696.559 326.353 696.559 312.975C696.559 307.144 694.844 302.342 692.786 302.342C690.728 302.342 689.699 307.83 690.385 315.034Z" fill="#262626"/>
<path d="M726.403 304.743C721.944 309.202 724.002 315.034 731.892 318.807L739.438 322.58H731.549C722.287 322.923 724.688 329.784 734.293 329.784C743.211 329.784 745.612 320.179 737.723 315.377C729.834 310.232 728.461 305.086 736.008 307.83C738.752 309.202 741.153 308.173 741.153 306.115C741.153 301.999 730.177 300.97 726.403 304.743Z" fill="#262626"/>
</svg>
