<svg width="48" height="48" viewBox="0 0 48 48" fill="none" xmlns="http://www.w3.org/2000/svg">
<g clip-path="url(#clip0_405_5545)">
<path d="M20.3443 28.5481C20.2305 28.9332 19.685 28.9332 19.5712 28.5481L12.6061 4.9813C12.5298 4.72305 12.7233 4.46402 12.9926 4.46402L26.9229 4.46402C27.1922 4.46402 27.3857 4.72305 27.3094 4.9813L20.3443 28.5481Z" fill="#F21D23"/>
<path d="M23.1733 29.3453C22.8679 29.606 22.4107 29.3085 22.5254 28.9237L28.2339 9.75988C28.3108 9.50179 28.6143 9.39025 28.84 9.53713L38.3405 15.7193C38.5663 15.8662 38.5872 16.1888 38.3824 16.3637L23.1733 29.3453Z" fill="#F21D23"/>
<path d="M24.6635 31.5711C24.2677 31.6219 24.0466 31.1283 24.348 30.8669L36.0749 20.6968C36.2791 20.5197 36.5963 20.5899 36.7068 20.8366L40.3759 29.0287C40.4864 29.2754 40.3276 29.5588 40.0595 29.5932L24.6635 31.5711Z" fill="#F21D23"/>
<path d="M24.1395 34.2101C23.7867 34.0292 23.8797 33.5011 24.2731 33.4515L35.9335 31.9834C36.2027 31.9495 36.4279 32.1859 36.3808 32.4531L35.1782 39.2836C35.1312 39.5508 34.8388 39.6962 34.5974 39.5724L24.1395 34.2101Z" fill="#F21D23"/>
<path d="M22.379 35.4416C22.1939 35.091 22.573 34.7118 22.9236 34.8969L31.6348 39.4973C31.8747 39.624 31.9234 39.9468 31.7315 40.1387L27.6208 44.2495C27.4289 44.4413 27.1061 44.3926 26.9794 44.1527L22.379 35.4416Z" fill="#F21D23"/>
<path d="M20.5902 36.0751C20.6051 35.6789 21.1231 35.5401 21.3341 35.8758L25.6885 42.8007C25.8329 43.0304 25.7137 43.3343 25.4516 43.4046L20.7887 44.654C20.5266 44.7242 20.2714 44.5206 20.2816 44.2495L20.5902 36.0751Z" fill="#F21D23"/>
<path d="M19.0517 35.6139C19.3005 35.3052 19.7987 35.5036 19.7672 35.8989L19.2121 42.8669C19.1906 43.1374 18.9133 43.3098 18.6612 43.2094L14.8289 41.683C14.5768 41.5826 14.4939 41.2669 14.6642 41.0556L19.0517 35.6139Z" fill="#F21D23"/>
<path d="M17.6534 34.7699C18.04 34.6818 18.3081 35.1462 18.0385 35.4369L14.5323 39.2182C14.3478 39.4172 14.0234 39.3807 13.8877 39.1457L12.3661 36.5103C12.2304 36.2753 12.361 35.9761 12.6256 35.9158L17.6534 34.7699Z" fill="#F21D23"/>
<path d="M17.278 32.2915C17.6592 32.4073 17.6592 32.947 17.278 33.0628L13.3239 34.2643C13.0651 34.343 12.8037 34.1493 12.8037 33.8787L12.8037 31.4756C12.8037 31.205 13.0651 31.0113 13.3239 31.09L17.278 32.2915Z" fill="#F21D23"/>
<path d="M17.7781 29.8802C18.0503 30.1711 17.7804 30.6384 17.3924 30.5482L14.7905 29.9428C14.527 29.8815 14.3975 29.583 14.5328 29.3487L15.3095 28.0034C15.4448 27.7691 15.768 27.732 15.9529 27.9296L17.7781 29.8802Z" fill="#F21D23"/>
</g>
<defs>
<clipPath id="clip0_405_5545">
<rect width="48" height="48" fill="white"/>
</clipPath>
</defs>
</svg>
